#!OML:ASF F:\VICON\USERDATA\INSTALL\rory3\rory3.ASF
:FULLY-SPECIFIED
:DEGREES
286
root 4.81943 17.1655 27.9948 47.6378 -61.86 -45.4722
lowerback 12.3987 4.94743 -2.72164
upperback -3.37986 6.2517 0.621467
thorax -11.0031 3.18658 0.826435
lowerneck 1.72942 3.76741 7.03078
upperneck 17.7244 4.47941 0.330875
head 5.23291 2.50445 -0.889743
rclavicle -1.47101e-014 1.59028e-014
rhumerus -21.7592 58.559 -52.388
rradius 118.877
rwrist -104.614
rhand 11.2732 5.53235
rfingers 7.12502
rthumb 36.3329 -20.7017
lclavicle -1.47101e-014 1.59028e-014
lhumerus 69.0459 -80.3363 -38.6324
lradius 95.0172
lwrist 67.6362
lhand 42.8039 20.0098
lfingers 7.12502
lthumb 64.6748 27.719
rfemur -108.4 -47.3241 35.0588
rtibia 119.461
rfoot 35.4773 -54.6859
rtoes 54.5859
lfemur -30.0615 9.00366 -9.59688
ltibia 48.1643
lfoot -35.5564 26.1507
ltoes 18.5219
287
root 4.78973 17.3495 28.0261 49.7118 -61.6232 -47.3906
lowerback 11.8075 4.89865 -2.15801
upperback -3.582 6.30965 0.760188
thorax -10.8336 3.18943 0.692847
lowerneck 1.51143 3.91478 7.42764
upperneck 18.2459 4.65913 0.105476
head 5.45674 2.60844 -1.00831
rclavicle 1.56642e-013 -3.81667e-014
rhumerus -23.6143 59.5144 -51.799
rradius 118.294
rwrist -104.842
rhand 14.1028 5.78928
rfingers 7.12502
rthumb 39.0064 -19.7289
lclavicle 1.56642e-013 -3.81667e-014
lhumerus 70.6911 -80.0975 -41.7963
lradius 92.6812
lwrist 64.4241
lhand 42.2014 21.4343
lfingers 7.12502
lthumb 64.193 29.8999
rfemur -108.041 -47.9352 33.3415
rtibia 118.429
rfoot 29.4379 -57.3891
rtoes 55.7447
lfemur -29.1556 7.71726 -8.45552
ltibia 46.5903
lfoot -35.527 27.1017
ltoes 19.2244
288
root 4.7607 17.5338 28.0488 51.5058 -61.5239 -49.0351
lowerback 11.3332 4.86033 -2.04199
upperback -3.7944 6.3092 0.959809
thorax -10.8017 3.19502 0.872669
lowerneck 1.36173 4.10778 7.842
upperneck 18.6055 4.90906 -0.109078
head 5.62366 2.7466 -1.12479
rclavicle -3.4191e-014 2.8625e-014
rhumerus -25.0462 60.5518 -50.974
rradius 117.347
rwrist -104.843
rhand 15.8244 5.60314
rfingers 7.12502
rthumb 40.6271 -19.4306
lclavicle -3.4191e-014 2.8625e-014
lhumerus 69.9089 -80.0167 -42.4022
lradius 90.4566
lwrist 60.8478
lhand 43.6887 22.8177
lfingers 7.12502
lthumb 65.3732 29.3607
rfemur -107.844 -48.4663 31.5787
rtibia 117.358
rfoot 25.4654 -58.8687
rtoes 55.8479
lfemur -28.2362 6.49308 -7.48895
ltibia 45.0278
lfoot -35.7023 27.7324
ltoes 20.9493
289
root 4.73089 17.7231 28.0693 53.4926 -61.222 -50.9546
lowerback 10.9581 4.80702 -1.7475
upperback -4.00497 6.32091 1.24739
thorax -10.8169 3.19692 1.03745
lowerneck 1.4979 4.37389 7.90073
upperneck 18.6469 5.26702 -0.075677
head 5.6308 2.9244 -1.10809
rclavicle -2.78299e-015 1.27222e-014
rhumerus -26.6764 61.5526 -50.2916
rradius 116.373
rwrist -104.778
rhand 17.847 5.34744
rfingers 7.12502
rthumb 42.5244 -19.0644
lclavicle -2.78299e-015 1.27222e-014
lhumerus 65.9864 -79.9053 -39.6197
lradius 87.7853
lwrist 56.005
lhand 46.7567 23.0141
lfingers 7.12502
lthumb 67.699 24.9396
rfemur -107.577 -48.8179 30.2321
rtibia 116.194
rfoot 21.2278 -60.0439
rtoes 56.1159
lfemur -27.3532 5.12018 -6.18667
ltibia 43.5383
lfoot -36.1784 28.4023
ltoes 22.7645
290
root 4.70027 17.908 28.0851 55.9658 -60.3863 -53.3926
lowerback 10.5489 4.72407 -0.735763
upperback -4.22169 6.39928 1.57907
thorax -10.7423 3.18297 0.844188
lowerneck 1.66431 4.59149 7.98886
upperneck 18.594 5.5632 -0.0338519
head 5.60151 3.07379 -1.09819
rclavicle 7.27552e-014 -3.18055e-014
rhumerus -28.793 62.1879 -50.1766
rradius 115.358
rwrist -104.766
rhand 19.3478 5.12402
rfingers 7.12502
rthumb 43.927 -18.786
lclavicle 7.27552e-014 -3.18055e-014
lhumerus 61.7773 -79.6454 -36.5688
lradius 84.9888
lwrist 51.2863
lhand 48.8651 22.6581
lfingers 7.12502
lthumb 69.1918 20.8107
rfemur -107.312 -49.0867 29.599
rtibia 114.968
rfoot 13.5919 -61.3839
rtoes 57.3066
lfemur -26.6001 3.97247 -4.22395
ltibia 42.1051
lfoot -37.0172 28.4108
ltoes 25.7407
291
root 4.67357 18.0883 28.0933 58.1971 -58.7326 -56.0847
lowerback 10.6894 4.56388 1.10759
upperback -4.36462 6.51839 2.16458
thorax -10.8496 3.13241 0.415904
lowerneck 1.80089 4.73743 8.09213
upperneck 18.6304 5.7519 0.0344905
head 5.60096 3.17454 -1.08669
rclavicle -7.95139e-016 -3.49861e-014
rhumerus -30.8705 62.7536 -49.9401
rradius 114.216
rwrist -104.533
rhand 19.9462 4.79543
rfingers 7.12502
rthumb 44.4849 -18.9042
lclavicle -7.95139e-016 -3.49861e-014
lhumerus 57.5329 -79.3701 -33.3094
lradius 82.3541
lwrist 47.2484
lhand 49.0072 23.1753
lfingers 7.12502
lthumb 69.2887 21.0539
rfemur -106.101 -49.6201 29.2685
rtibia 113.5
rfoot 3.60293 -62.0656
rtoes 58.4289
lfemur -25.5553 2.90429 -1.3856
ltibia 40.7082
lfoot -37.7358 27.256
ltoes 30.7907
292
root 4.64407 18.2606 28.1004 60.4435 -57.6949 -58.4833
lowerback 10.6447 4.59042 2.21957
upperback -4.62325 6.77289 2.63718
thorax -11.0495 3.18838 0.255076
lowerneck 2.10002 4.8926 8.06198
upperneck 18.5998 5.95993 0.185591
head 5.54561 3.27936 -1.03192
rclavicle 4.69132e-014 -3.18055e-015
rhumerus -33.1795 63.3152 -49.8768
rradius 112.794
rwrist -103.874
rhand 20.4933 4.35606
rfingers 7.12502
rthumb 44.9944 -19.1457
lclavicle 4.69132e-014 -3.18055e-015
lhumerus 53.1755 -78.959 -29.7297
lradius 79.6417
lwrist 42.9778
lhand 47.8588 23.8406
lfingers 7.12502
lthumb 68.4915 23.8609
rfemur -105.206 -49.504 28.3475
rtibia 111.819
rfoot 1.76924 -62.0276
rtoes 58.2765
lfemur -24.6812 1.82962 0.802585
ltibia 39.2583
lfoot -39.4971 26.804
ltoes 34.9282
293
root 4.61481 18.4185 28.1056 62.3293 -56.3088 -60.6598
lowerback 10.7884 4.51011 3.71654
upperback -4.83091 6.95253 3.14061
thorax -11.2634 3.17434 -0.0780584
lowerneck 2.2477 5.08206 7.94478
upperneck 18.634 6.18963 0.427498
head 5.53055 3.39555 -0.929589
rclavicle -1.31198e-014 8.5875e-014
rhumerus -35.782 63.6604 -50.3071
rradius 111.001
rwrist -102.861
rhand 21.7334 3.863
rfingers 7.12502
rthumb 46.1463 -19.1704
lclavicle -1.31198e-014 8.5875e-014
lhumerus 47.6418 -78.3488 -24.9034
lradius 76.5457
lwrist 38.6775
lhand 47.4206 24.0321
lfingers 7.12502
lthumb 68.1794 24.827
rfemur -103.905 -49.6002 27.332
rtibia 109.96
rfoot 7.75258 -61.4559
rtoes 57.0174
lfemur -23.7354 0.704933 3.20236
ltibia 37.8285
lfoot -41.4198 26.7424
ltoes 37.6598
294
root 4.59549 18.5672 28.1019 63.7796 -55.3898 -62.3926
lowerback 11.1039 4.47101 4.67451
upperback -4.99916 7.10648 3.44161
thorax -11.5722 3.17264 -0.339059
lowerneck 2.08322 5.27608 8.10411
upperneck 18.8795 6.3919 0.618638
head 5.64587 3.51748 -0.877419
rclavicle -7.7526e-015 5.725e-014
rhumerus -39.0833 63.8734 -50.5174
rradius 110.001
rwrist -102.208
rhand 23.3775 3.76862
rfingers 7.12502
rthumb 47.6675 -18.5978
lclavicle -7.7526e-015 5.725e-014
lhumerus 42.3569 -77.4551 -20.4246
lradius 73.3757
lwrist 35.2007
lhand 47.395 24.3026
lfingers 7.12502
lthumb 68.1611 25.1419
rfemur -102.886 -49.6183 25.8543
rtibia 108.029
rfoot 15.2644 -60.3775
rtoes 55.9865
lfemur -22.7722 -0.922601 5.08021
ltibia 36.4198
lfoot -44.7296 24.6211
ltoes 42.5362
295
root 4.58362 18.7053 28.1023 65.2633 -54.7878 -64.201
lowerback 11.4937 4.4366 5.36759
upperback -5.1032 7.23022 3.6762
thorax -11.8759 3.17156 -0.523912
lowerneck 1.833 5.52004 8.48307
upperneck 19.1911 6.66192 0.679118
head 5.81346 3.68032 -0.893029
rclavicle -6.38099e-014 1.27222e-014
rhumerus -39.3718 64.1593 -49.3944
rradius 107.429
rwrist -101.868
rhand 24.7417 3.59822
rfingers 7.12502
rthumb 48.9239 -18.1717
lclavicle -6.38099e-014 1.27222e-014
lhumerus 36.1651 -76.2763 -15.1112
lradius 70.0149
lwrist 31.922
lhand 47.4176 24.1379
lfingers 7.12502
lthumb 68.1773 24.938
rfemur -101.6 -49.3089 23.8841
rtibia 105.775
rfoot 24.034 -58.0429
rtoes 54.7808
lfemur -21.8173 -2.39187 6.59583
ltibia 35.1745
lfoot -47.7046 23.3921
ltoes 45.2336
296
root 4.56509 18.8287 28.0973 66.4876 -54.3448 -65.4645
lowerback 11.5767 4.32714 5.69656
upperback -5.21186 7.16519 3.83728
thorax -12.0388 3.11214 -0.524932
lowerneck 1.38263 5.80688 8.94491
upperneck 19.6235 6.9672 0.70499
head 6.0618 3.86681 -0.920959
rclavicle 3.63776e-014 -3.49861e-014
rhumerus -39.8328 64.2801 -47.9856
rradius 105.549
rwrist -101.072
rhand 25.4743 2.80181
rfingers 7.12502
rthumb 49.5963 -18.6304
lclavicle 3.63776e-014 -3.49861e-014
lhumerus 30.5466 -74.8044 -10.4677
lradius 66.6676
lwrist 28.8098
lhand 47.3501 23.9272
lfingers 7.12502
lthumb 68.1289 24.8445
rfemur -100.512 -49.2595 21.7421
rtibia 103.404
rfoot 30.1005 -55.1157
rtoes 53.6174
lfemur -21.2405 -3.74291 7.74454
ltibia 34.0833
lfoot -50.9469 20.7683
ltoes 48.1755
297
root 4.55008 18.9442 28.0994 67.8815 -53.2377 -67.0885
lowerback 11.881 4.16093 6.82858
upperback -5.34369 7.19763 4.20028
thorax -12.2989 3.03319 -0.779147
lowerneck 0.867571 6.13745 9.1696
upperneck 20.2059 7.30842 0.842699
head 6.35895 4.06412 -0.867045
rclavicle -4.37326e-014 -3.18055e-015
rhumerus -39.6622 64.3951 -46.7009
rradius 102.724
rwrist -100.118
rhand 26.42 2.05491
rfingers 7.12502
rthumb 50.4616 -18.922
lclavicle -4.37326e-014 -3.18055e-015
lhumerus 25.6609 -73.2621 -6.52244
lradius 63.5691
lwrist 25.8993
lhand 46.3962 24.2468
lfingers 7.12502
lthumb 67.4344 26.7653
rfemur -99.1985 -49.2542 20.3943
rtibia 100.884
rfoot 32.2474 -53.1338
rtoes 52.9163
lfemur -20.603 -5.35917 9.69893
ltibia 33.092
lfoot -54.5809 15.8316
ltoes 51.3093
298
root 4.54044 19.0446 28.1039 69.3816 -51.5043 -68.9588
lowerback 12.383 3.96741 8.75775
upperback -5.51432 7.37862 4.71074
thorax -12.6544 2.94977 -1.34379
lowerneck 0.797823 6.42617 9.20691
upperneck 20.3635 7.64837 1.04501
head 6.4327 4.24481 -0.781862
rclavicle 1.39149e-015 -2.22639e-014
rhumerus -39.8587 64.4956 -45.4306
rradius 100.128
rwrist -99.1608
rhand 27.232 1.86766
rfingers 7.12502
rthumb 51.202 -18.7003
lclavicle 1.39149e-015 -2.22639e-014
lhumerus 21.5918 -71.4699 -3.16371
lradius 60.5249
lwrist 22.8276
lhand 45.4686 24.8476
lfingers 7.12502
lthumb 66.7423 28.8276
rfemur -97.7208 -49.1392 19.6386
rtibia 98.3042
rfoot 29.7789 -53.335
rtoes 53.5856
lfemur -19.995 -6.56859 12.3167
ltibia 32.1873
lfoot -57.4496 11.976
ltoes 52.9565
299
root 4.5329 19.132 28.1077 70.7008 -50.4805 -70.4654
lowerback 12.8209 3.89747 9.87467
upperback -5.73225 7.59615 5.09096
thorax -13.0989 2.93611 -1.60916
lowerneck 1.03478 6.68068 9.29762
upperneck 20.1847 8.01902 1.04431
head 6.35619 4.42587 -0.783125
rclavicle -4.4329e-014 1.59028e-014
rhumerus -39.9015 64.7421 -43.7523
rradius 97.5496
rwrist -98.5443
rhand 28.2107 2.07101
rfingers 7.12502
rthumb 52.0913 -17.9802
lclavicle -4.4329e-014 1.59028e-014
lhumerus 18.0711 -69.5031 -0.128739
lradius 57.4363
lwrist 19.2203
lhand 44.9015 24.521
lfingers 7.12502
lthumb 66.3116 29.3508
rfemur -96.5776 -48.8763 18.2156
rtibia 95.6176
rfoot 26.6988 -54.2111
rtoes 54.0638
lfemur -19.4406 -8.01956 14.0533
ltibia 31.3487
lfoot -60.3228 8.24126
ltoes 53.9636
300
root 4.52604 19.2087 28.1133 71.8741 -49.7927 -71.7331
lowerback 13.2575 3.83743 10.748
upperback -5.98146 7.78404 5.27078
thorax -13.5808 2.91303 -1.95553
lowerneck 1.16086 6.94233 9.48041
upperneck 20.0078 8.36288 1.17207
head 6.29893 4.60967 -0.755962
rclavicle 5.56597e-014 -3.49861e-014
rhumerus -40.0069 64.7384 -42.4646
rradius 94.7634
rwrist -97.8966
rhand 29.16 2.17372
rfingers 7.12502
rthumb 52.9502 -17.3501
lclavicle 5.56597e-014 -3.49861e-014
lhumerus 15.1353 -67.1417 2.25109
lradius 54.3556
lwrist 15.0564
lhand 44.6633 23.9444
lfingers 7.12502
lthumb 66.1292 29.1216
rfemur -95.3371 -48.6458 16.3552
rtibia 92.676
rfoot 23.4742 -55.0837
rtoes 53.9386
lfemur -18.9165 -9.98775 15.424
ltibia 30.5812
lfoot -63.1116 4.43135
ltoes 54.6308
